<?xml version="1.0" encoding="utf-8"?>
<!-- Generator: Adobe Illustrator 25.2.0, SVG Export Plug-In . SVG Version: 6.00 Build 0)  -->
<svg version="1.1" id="Layer_1" xmlns="http://www.w3.org/2000/svg" xmlns:xlink="http://www.w3.org/1999/xlink" x="0px" y="0px"
	 viewBox="0 0 503 502.9" style="enable-background:new 0 0 503 502.9;" xml:space="preserve">
<style type="text/css">
	.st0{fill:#EE2D2C;}
	.st1{fill:#030100;}
</style>
<rect y="-0.1" class="st0" width="503" height="503"/>
<path class="st1" d="M224.2,134.3c0.3-0.4,0-1.3-0.2-1.8c0-0.1-0.1-0.2-0.1-0.3c0-0.1-0.1-0.1-0.1-0.2c-2.7-3.7-5.4-7.2-8-11
	c-3.8-5.5-7.4-11.1-10.6-16.9c-2-3.7-3.2-7.7-3.6-11.9c-0.2-2,0.7-3.9,2.3-5c0.6-0.5,1.3-0.6,2-0.3c1.5,0.4,2.8,1.3,3.8,2.5
	c1.6,1.9,3.1,3.9,4.7,5.8c4.4,5.2,8.7,10.4,13.2,15.6c4.1,4.6,8.2,9.2,12.5,13.6c6,6.3,12.2,12.3,18.5,18.3
	c8,7.5,16.2,14.8,24.7,21.8c8.6,7.2,17.5,14.1,26.5,20.7c6.7,4.9,13.4,9.6,20.2,14.3c6.1,4.2,12.4,8.2,18.7,12.2
	c5.4,3.3,10.4,7.3,14.9,11.8c4.5,4.6,8.2,9.9,11,15.7c3.1,6.9,8.3,12.7,14.9,16.5c2.8,1.7,5.8,3,8.8,4.5c7.8,3.7,15.6,7.4,23.5,11
	c7.3,3.4,14.7,6.8,22,10.2c7.8,3.6,15.5,7.2,23.2,10.9c3.5,1.6,6.9,3.5,10.3,5.2c0.4,0.2,0.7,0.4,1,0.6c4.2,2.5,5.5,7.1,4.8,11.4
	c-2,11.4-7.8,20.7-15.8,28.8c-1.9,1.9-4,3.7-6,5.5c-3.5,2.9-9.5,6.7-11.4,7.5c-16.4,7.1-32.5,8-65.6,7.8
	c-25.9-0.2-66.8-4.6-67.8-4.8c-3.8-0.5-23.4-3.9-29.4-4.9s-12.1-2.2-18.2-3.2c-6.2-1.1-12.5-2.2-18.7-3.2c-4-0.6-8.1-1.1-12.1-1.7
	c-3.6-0.5-7.2-1-10.8-1.4c-2.1-0.2-4.1-0.4-6.2-0.6c-3.1-0.2-6.2-0.5-9.3-0.6c-4.2-0.1-8.5-0.3-12.7-0.2c-6.6,0-13.3,0.6-19.9,1.6
	c-5.7,0.9-11.3,2.2-16.8,3.9c-10.3,3.3-19.9,8.8-27.9,16c-3.8,3.5-7.5,7.3-10.9,11.2c-4.3,4.9-8.4,9.9-12.6,14.8
	c-3.1,3.6-6.6,6.8-10.5,9.5c-5.2,3.7-11.1,6.2-17.3,7.4c-4.7,0.9-9.4,1-14.1,0.5c-3-0.3-5.8-0.9-8.8-1.4c-2.2-0.4-4.5-0.4-6.7,0
	c-5.1,1-8.6,4.1-11.1,8.4c-2.2,3.9-3.9,8.1-4.9,12.5c-0.7,2.9-1.5,5.7-2.2,8.6c-0.3,1-0.6,2-1,3c-1.3,3-2.8,3.1-4.9,0.6
	c-0.6-0.8-1.2-1.7-1.8-2.6c0,0,0-0.1-0.1-0.1c-4.8-8.1-8-17-9.6-26.3c-2-11.5-1.1-23.3,2.6-34.4c1.9-5.9,4.6-11.5,7.9-16.7
	c6.6-10.3,15.5-18.9,26-25.1c6.7-3.9,13.8-7.1,21.2-9.5c7.2-2.3,14.7-4,22.2-4.9c5.9-0.7,11.8-1.1,17.7-1c5.5,0,11,0.4,16.5,1
	c9.9,1.1,19.6,2.9,29.4,4.8s19.6,4.1,29.3,6.3c8.1,1.8,16.3,3.5,24.4,5.1c7.9,1.7,16,2.4,24.1,2.1c4.4-0.2,8.8-0.7,13.1-1.5
	c9.6-1.8,18.9-5.2,27.4-10c7.6-4.3,14.7-9.4,21.2-15.3c0.8-0.7,1.5-1.5,2.1-2.3c2.2-2.8,4.1-5.8,5.6-8.9c1.3-2.5,2-5.3,2.2-8.1
	c0.1-2.4-0.4-4.8-1.5-7c-1.2-2.3-2.8-4.3-4.8-6c-1.3-1.1-2.6-2.1-4-3.1c-7.8-5.5-15.7-10.9-23.5-16.4c-6.3-4.4-12.5-9-18.6-13.6
	c-5.5-4.1-10.6-8.9-15-14.2c-4.8-5.8-8.9-12.2-12.1-19c-3.1-6.5-6.7-12.8-10.6-18.8c-3.8-5.9-8-11.6-12.5-17
	c-5.3-6.3-11-12.3-17.1-17.9c-4.2-3.8-8.5-7.5-13-11c-6.6-5.1-13.4-9.8-20.6-14.2c-4.7-2.9-9.4-5.8-14-8.8
	c-8.2-5.2-16.1-10.7-23.8-16.6c-7.5-5.7-14.7-11.8-21.6-18.3c-4.9-4.1-9.4-8.7-13.7-13.6c-3.8-4.1-7.3-8.5-10.4-13.2
	c-4.8-6.8-8.5-14.3-11-22.3c-1-3.3-1.7-6.7-2.1-10.1c-0.5-3.5,0.3-6.9,1.3-10.2c0.7-1.5,2.2-2.4,3.8-2.5c0.5,0.1,0.9,0.2,1.3,0.5
	c0.8,0.7,1.4,1.6,1.7,2.6c1,3.1,2.1,6.2,3.3,9.3c0.8,2,1.6,4,2.6,5.9c3.1,6.1,6.9,11.9,11.2,17.3c4.1,5,8.5,9.8,13.3,14.2
	c5,4.6,10.3,8.9,15.8,13c8.1,6.1,16.5,11.9,25.2,17.3c10.5,6.6,21.4,12.6,32.4,18.3c8.3,4.3,16.8,8.3,25.3,12.2
	c6.2,2.8,12.4,5.5,18.7,8.3c1.7,0.7,3.7,1.4,5.6,1.8C223.1,134.9,223.9,134.8,224.2,134.3z"/>
<path class="st1" d="M199.5,206.2l-25.7-0.9c-0.7-1.7-1.3-3.5-1.8-5.4c-0.6-1.8-1-3.5-1.5-5.3s-1.2-3.6-1.7-5.5s-1.2-3.4-1.5-5.2
	c0.3,0,0.5-0.1,0.6,0c10.5,7.2,20.9,14.4,31.4,21.7C199.4,205.7,199.4,205.9,199.5,206.2z"/>
</svg>
